<svg id="Layer_1" enable-background="new 0 0 512.002 512.002" height="512" viewBox="0 0 512.002 512.002" width="512" xmlns="http://www.w3.org/2000/svg"><g><g clip-rule="evenodd" fill-rule="evenodd"><path d="m299.032 208.549c23.331-23.432 54.854-29.763 70.408-14.142s9.25 47.279-14.081 70.71c-23.331 23.432-54.854 29.763-70.408 14.142-15.555-15.621-9.25-47.279 14.081-70.71zm-156.469-14.142c15.554-15.621 47.077-9.29 70.408 14.142s29.635 55.09 14.081 70.71c-15.553 15.621-47.076 9.29-70.408-14.142-23.331-23.431-29.635-55.09-14.081-70.71zm283.438-13.676c0-94.292-76.111-170.731-170-170.731s-170 76.439-170 170.731c0 90.538 61.635 181.099 122.636 215.152 16.223 9.057 32.402 14.117 47.364 14.117s31.141-5.06 47.364-14.117c61.001-34.053 122.636-124.614 122.636-215.152z" fill="#88df8e"/><ellipse cx="184.807" cy="236.833" fill="#6d91ac" rx="39.914" ry="59.872" transform="matrix(.711 -.703 .703 .711 -113.127 198.382)"/><path d="m299.032 208.549c-23.331 23.432-29.636 55.09-14.082 70.71 15.554 15.621 47.077 9.29 70.408-14.142 23.331-23.431 29.635-55.09 14.081-70.71-15.553-15.621-47.076-9.29-70.407 14.142z" fill="#6d91ac"/><path d="m256.001 410c-14.962 0-31.141-5.06-47.364-14.117-13.262 57.293-122.636 19.697-122.636 106.118h340c0-86.421-109.374-48.825-122.636-106.118-16.223 9.057-32.401 14.117-47.364 14.117z" fill="#88df8e"/></g><g><path d="m137.83 125.287c1.548.869 3.228 1.281 4.885 1.281 3.498 0 6.896-1.84 8.729-5.108 6.512-11.604 14.838-21.996 24.748-30.888 4.11-3.688 4.453-10.011.765-14.121-3.689-4.111-10.01-4.453-14.122-.765-11.545 10.359-21.245 22.466-28.832 35.986-2.703 4.817-.989 10.912 3.827 13.615z"/><path d="m287.113 326.597c0-5.523-4.478-10-10-10h-42.223c-5.522 0-10 4.477-10 10s4.478 10 10 10h42.224c5.522 0 9.999-4.477 9.999-10z"/><path d="m361.971 425.44c-20.888-5.818-39.205-10.926-46.435-25.074 20.75-12.975 41.392-31.983 60.053-55.862 38.393-49.127 60.412-108.82 60.412-163.774 0-99.654-80.748-180.73-180-180.73s-180 81.076-180 180.731c0 54.954 22.02 114.647 60.413 163.774 18.666 23.885 39.313 42.896 60.068 55.872-6.581 13.053-22.482 18.388-46.451 25.064-32.982 9.186-74.03 20.619-74.03 76.561 0 5.523 4.478 10 10 10h340c5.522 0 10-4.477 10-10 0-55.942-41.048-67.375-74.03-76.562zm-209.799-93.251c-35.697-45.677-56.171-100.882-56.171-151.458 0-88.627 71.775-160.731 160-160.731s160 72.104 160 160.731c0 50.577-20.474 105.781-56.171 151.458-32.688 41.828-72.474 67.811-103.829 67.811s-71.141-25.983-103.829-67.811zm-55.549 159.813c4.25-32.106 29.704-39.198 58.774-47.294 22.447-6.252 47.519-13.241 58.692-34.797 14.386 6.584 28.568 10.089 41.912 10.089 13.347 0 27.534-3.508 41.924-10.095 11.18 21.556 36.25 28.555 58.68 34.802 29.07 8.097 54.524 15.188 58.774 47.294h-318.756z"/><path d="m220.057 201.492c-15.996-16.064-36.49-25.655-54.822-25.655-11.968 0-22.258 3.981-29.758 11.513-19.731 19.816-13.546 57.074 14.082 84.821 15.995 16.065 36.489 25.656 54.821 25.656 11.969 0 22.259-3.981 29.758-11.513 19.732-19.816 13.547-57.075-14.081-84.822zm-.091 70.711c-4.63 4.649-11.03 5.625-15.586 5.625-13.129 0-28.324-7.39-40.649-19.767-19.09-19.173-25.539-45.092-14.082-56.599 4.63-4.649 11.031-5.625 15.586-5.625 13.129 0 28.325 7.39 40.65 19.767 19.09 19.173 25.538 45.092 14.081 56.599z"/><path d="m307.622 297.828c18.331 0 38.827-9.592 54.821-25.656 27.628-27.747 33.813-65.005 14.082-84.821-7.499-7.532-17.789-11.514-29.757-11.514-.002 0 0 0-.001 0-18.331 0-38.826 9.591-54.821 25.655-27.629 27.747-33.814 65.005-14.082 84.822 7.499 7.533 17.789 11.514 29.758 11.514zm-1.504-82.224c12.325-12.378 27.521-19.767 40.649-19.767 4.556 0 10.956.976 15.586 5.625 11.457 11.507 5.008 37.426-14.082 56.599-12.325 12.377-27.521 19.767-40.649 19.767-4.556 0-10.956-.976-15.586-5.625-11.457-11.507-5.008-37.426 14.082-56.599z"/><path d="m207.698 69.309c5.522 0 10-4.477 10-10s-4.478-10-10-10h-.008c-5.522 0-9.996 4.477-9.996 10s4.482 10 10.004 10z"/></g></g></svg>