<?xml version="1.0" ?><!DOCTYPE svg  PUBLIC '-//W3C//DTD SVG 1.1//EN'
  'http://www.w3.org/Graphics/SVG/1.1/DTD/svg11.dtd'>
<svg height="512px" style="enable-background:new 0 0 512 512;" version="1.1" viewBox="0 0 512 512" width="512px"
     xml:space="preserve" xmlns="http://www.w3.org/2000/svg" xmlns:xlink="http://www.w3.org/1999/xlink">
  <g id="_x32_1_x2C__conference_x2C_meeting_x2C_business_x2C_office"><g><path d="M257.688,102.27c21.35,0,38.72-17.375,38.72-38.732c0-21.344-17.37-38.707-38.72-38.707    c-21.35,0-38.72,17.363-38.72,38.707C218.968,84.895,236.337,102.27,257.688,102.27z"/>
    <path
      d="M69.742,239.916l66.587,67.777v-66.826c0-2.209,1.791-4,4-4s4,1.791,4,4v245.646h223.806V240.867c0-2.209,1.791-4,4-4    s4,1.791,4,4v68.461l66.047-68.984v-42.275H69.742V239.916z"/>
    <path
      d="M255.969,128.035c-42.155,0-76.742,27.432-79.238,61.934h158.463C332.697,155.467,298.117,128.035,255.969,128.035z"/>
    </g>
    </g>
  <g id="Layer_1"/>
</svg>
