<?xml version="1.0" encoding="utf-8"?>
<svg height="512px" style="enable-background:new 0 0 512 512;" version="1.1" viewBox="0 0 512 512" width="512px" xmlns="http://www.w3.org/2000/svg">
  <g id="_x32_1_x2C__conference_x2C_meeting_x2C_business_x2C_office">
    <g>
      <path d="M257.688,102.27c21.35,0,38.72-17.375,38.72-38.732c0-21.344-17.37-38.707-38.72-38.707    c-21.35,0-38.72,17.363-38.72,38.707C218.968,84.895,236.337,102.27,257.688,102.27z" style="fill: rgb(25, 63, 49);"/>
      <path d="M69.742,239.916l66.587,67.777v-66.826c0-2.209,1.791-4,4-4s4,1.791,4,4v245.646h223.806V240.867c0-2.209,1.791-4,4-4    s4,1.791,4,4v68.461l66.047-68.984v-42.275H69.742V239.916z" style="fill: rgb(25, 63, 49);"/>
      <path d="M255.969,128.035c-42.155,0-76.742,27.432-79.238,61.934h158.463C332.697,155.467,298.117,128.035,255.969,128.035z" style="fill: rgb(25, 63, 49);"/>
    </g>
  </g>
  <g id="Layer_1"/>
  <path fill="rgb(255,0,0)" stroke="rgb(255,0,0)" stroke-width="0" opacity="0.8196078431372549" d="M 319.369 21.502 C 322.662 21.409 323.532 22.01 325.024 24.073 C 326.711 26.405 328.574 33.381 329.139 38.268 C 331.803 38.342 335.198 38.873 336.699 40.374 C 338.669 42.344 338.969 47.585 338.755 50.141 C 338.592 52.09 338.161 53.666 336.699 54.768 C 334.78 56.212 329.488 57.038 326.932 56.824 C 324.983 56.661 323.406 56.23 322.305 54.768 C 320.861 52.849 320.035 47.557 320.249 45 C 320.412 43.052 321.191 41.488 322.305 40.374 C 322.808 39.871 323.402 39.437 324.081 39.097 C 323.563 34.883 322.808 29.846 319.884 28.699 C 312.663 25.868 284.471 37.381 278.759 42.065 C 275.904 44.406 277.398 48.784 276.189 49.261 C 275.217 49.645 272.885 48.185 272.59 46.691 C 272.155 44.484 273.197 39.205 277.217 35.896 C 284.069 30.257 312.128 21.707 319.369 21.502 Z M 199.08 25.615 C 204.42 26.058 243.218 39.662 245.859 43.607 C 246.86 45.101 245.496 46.912 243.289 47.205 C 237.665 47.952 208.335 29.668 200.108 31.784 C 195.511 32.966 194.815 39.976 192.936 43.645 C 194.752 45.742 195.027 50.746 194.819 53.225 C 194.656 55.174 194.225 56.751 192.763 57.852 C 190.845 59.296 185.552 60.122 182.996 59.908 C 181.047 59.745 179.471 59.314 178.369 57.852 C 176.925 55.933 176.099 50.641 176.313 48.085 C 176.476 46.136 177.256 44.572 178.369 43.458 C 179.483 42.344 181.047 41.565 182.996 41.402 C 183.483 41.361 184.066 41.339 184.706 41.344 C 187.906 36.327 195.024 28.47 197.024 26.643 C 198.042 25.713 197.524 25.486 199.08 25.615 Z" style="fill: rgb(25, 63, 49); fill-opacity: 1; fill-rule: nonzero; stroke: none; stroke-dasharray: none; stroke-dashoffset: 0px; stroke-linecap: butt; stroke-linejoin: miter; stroke-miterlimit: 4; stroke-opacity: 1; stroke-width: 1px; paint-order: normal; vector-effect: none; opacity: 1; mix-blend-mode: normal; isolation: auto;"/>
</svg>