<svg id="Capa_1" enable-background="new 0 0 512.004 512.004" height="512" viewBox="0 0 512.004 512.004" width="512"
     xmlns="http://www.w3.org/2000/svg">
  <path
    d="m509.321 450.033c-5.395-15.706-18.855-31.299-40.007-46.347-15.188-10.799-31.583-19.277-47.129-24.462 8.481-15.865 4.057-35.996-10.981-46.694-7.905-5.624-17.527-7.832-27.094-6.218-1.323.223-2.62.522-3.892.882 6.888-38.967-2.326-78.569-24.727-110.18v-74.169c0-4.142-3.358-7.5-7.5-7.5s-7.5 3.358-7.5 7.5v56.233c-6.015-6.127-12.628-11.793-19.813-16.904-31.961-22.731-70.858-31.658-109.529-25.136-38.67 6.522-72.482 27.714-95.208 59.67-21.141 29.713-30.441 66.005-26.189 102.192.872 7.422 2.306 14.713 4.256 21.826h-53.548c-14.039 0-25.46-11.421-25.46-25.46v-274.572c0-14.039 11.421-25.46 25.46-25.46h274.57c14.039 0 25.46 11.421 25.46 25.46v72.15c0 4.142 3.358 7.5 7.5 7.5s7.5-3.358 7.5-7.5v-72.15c0-22.31-18.15-40.46-40.46-40.46h-274.57c-22.31.001-40.46 18.151-40.46 40.46v274.57c0 22.31 18.15 40.46 40.46 40.46h58.539c8.397 21.317 21.711 40.497 39.108 55.905 1.428 1.264 3.202 1.885 4.97 1.885 2.073 0 4.136-.854 5.618-2.528 2.746-3.101 2.458-7.841-.642-10.587-24.2-21.432-39.615-50.998-43.405-83.252-3.817-32.486 4.533-65.069 23.514-91.747 20.405-28.692 50.762-47.718 85.481-53.574 34.718-5.855 69.643 2.159 98.34 22.568 46.049 32.758 66.011 90.796 49.994 144.821-.489.603-.968 1.218-1.422 1.857l-46.898 65.93c-.459.645-.884 1.302-1.295 1.966-41.455 29.722-96.706 32.856-141.198 7.866-3.612-2.029-8.184-.745-10.212 2.866s-.745 8.184 2.866 10.212c22.306 12.529 47.031 18.715 71.7 18.715 24.735 0 49.407-6.235 71.496-18.528.61 10.635 5.851 20.912 15.186 27.552 6.217 4.423 13.496 6.733 20.976 6.733 2.03 0 4.076-.17 6.118-.515 8.024-1.354 15.196-5.268 20.621-11.157 10.004 12.994 23.392 25.701 38.567 36.497 23.68 16.84 42.277 22.56 56.62 22.559 20.784-.001 32.633-12.016 38.043-19.622 9.107-12.801 11.243-27.365 6.176-42.113zm-162.522-.954c-5.613.948-11.263-.349-15.905-3.65-9.58-6.814-11.829-20.152-5.015-29.731l46.898-65.929c3.301-4.641 8.212-7.718 13.827-8.665 1.199-.202 2.399-.302 3.592-.302 4.39 0 8.663 1.356 12.313 3.952 9.579 6.814 11.829 20.152 5.015 29.731l-46.898 65.929c-3.301 4.641-8.212 7.718-13.827 8.665zm144.122 34.375c-6.885 9.68-15.961 13.282-25.661 13.281-16.921-.001-35.734-10.965-48.084-19.748-15.368-10.933-28.657-23.884-37.929-36.873l34.102-47.941c15.297 4.493 31.89 12.799 47.271 23.735 19.428 13.823 49.2 40.977 30.301 67.546z"/>
  <path
    d="m235.344 408.042c5.937 0 11.918-.498 17.891-1.505 27.973-4.719 52.434-20.048 68.877-43.164 33.945-47.719 22.739-114.158-24.981-148.103-47.718-33.944-114.158-22.737-148.103 24.981-33.945 47.719-22.738 114.158 24.981 148.103 18.181 12.933 39.465 19.688 61.335 19.688zm-74.094-159.096c17.769-24.979 45.9-38.306 74.445-38.306 18.284 0 36.74 5.472 52.741 16.853 40.979 29.15 50.603 86.205 21.453 127.185-14.121 19.851-35.127 33.016-59.149 37.067-24.023 4.053-48.184-1.493-68.036-15.614-40.98-29.15-50.603-86.205-21.454-127.185z"/>
  <path
    d="m235.57 323.279c12.937 0 23.462-10.525 23.462-23.462v-48.884c0-12.937-10.525-23.462-23.462-23.462s-23.462 10.525-23.462 23.462v48.884c0 12.937 10.525 23.462 23.462 23.462zm-8.462-72.346c0-4.666 3.796-8.462 8.462-8.462s8.462 3.796 8.462 8.462v48.884c0 4.666-3.796 8.462-8.462 8.462s-8.462-3.796-8.462-8.462z"/>
  <path
    d="m235.57 376.153c12.937 0 23.462-10.525 23.462-23.462s-10.525-23.462-23.462-23.462-23.462 10.525-23.462 23.462 10.525 23.462 23.462 23.462zm0-31.924c4.666 0 8.462 3.796 8.462 8.462s-3.796 8.462-8.462 8.462-8.462-3.796-8.462-8.462 3.796-8.462 8.462-8.462z"/>
  <path
    d="m103.698 34.969c-2.929-2.929-7.678-2.929-10.606 0l-53.872 53.872c-2.929 2.929-2.929 7.677 0 10.606 1.464 1.465 3.384 2.197 5.303 2.197s3.839-.732 5.303-2.197l53.872-53.872c2.929-2.928 2.929-7.677 0-10.606z"/>
  <path
    d="m63.728 130.825c1.919 0 3.839-.732 5.303-2.197l83.052-83.052c2.929-2.929 2.929-7.677 0-10.606s-7.678-2.929-10.606 0l-83.052 83.052c-2.929 2.929-2.929 7.677 0 10.606 1.464 1.464 3.383 2.197 5.303 2.197z"/>
  <path
    d="m314.564 82.855-53.872 53.872c-2.929 2.929-2.929 7.678 0 10.606 1.464 1.465 3.384 2.197 5.303 2.197s3.839-.732 5.303-2.197l53.872-53.872c2.929-2.929 2.929-7.677 0-10.606-2.928-2.929-7.677-2.929-10.606 0z"/>
</svg>
