<svg width="200" height="200" xmlns="http://www.w3.org/2000/svg">
  <!-- Created with Method Draw - http://github.com/duopixel/Method-Draw/ -->

  <g>
    <title>background</title>
  </g>
  <g>
    <title>Layer 1</title>
    <desc transform="matrix(2.5195264071413845,0,0,2.5195264071413845,0,0) ">Created with Sketch.</desc>
    <g id="svg_9">
      <g transform="matrix(2.5195264071413845,0,0,2.5195264071413845,0,0) " id="svg_4" fill-rule="evenodd" fill="none">
        <g id="svg_5" fill="#000000">
          <path id="svg_6"
                d="m57.519157,36.425721l0,-14.73434c0,-1.1025 -0.63311,-2.62937 -1.41374,-3.41l-8.07201,-8.07201c-0.78079,-0.78078 -2.31543,-1.41374 -3.40651,-1.41374l-21.10897,0c-2.20846,0 -3.99877,1.78996 -3.99877,3.99401l0,44.01198c0,2.20583 1.78185,3.99401 3.99484,3.99401l9.63525,0c-0.33144,-1.28771 -0.53785,-2.62562 -0.60552,-4l-7.03295,0c-1.09994,0 -1.99085,-0.89887 -1.98991,-2.00496l0.03408,-39.99091c0.00094,-1.10731 0.90244,-2.00514 2.01168,-2.00537l16.94256,-0.00348c1.11007,-0.00023 2.00997,0.89596 2.00997,1.99812l0,3.00438c0,2.21036 1.78888,4.00222 3.99779,4.00222l3.04721,0c1.10981,0 2.00809,0.90035 2.00636,2.00746l-0.01871,12.01874c1.36293,0.06932 2.68984,0.27508 3.96735,0.60389l0,0zm-22.32436,9.36991l-3.67564,0c-1.10457,0 -2,0.89543 -2,2c0,1.10457 0.89543,2 2,2l1.9156,0c0.44181,-1.40666 1.03484,-2.74634 1.76005,-4.00001l-0.00001,0.00001zm7.64227,-7.5044c-0.35194,-0.30856 -0.81308,-0.4956 -1.31791,-0.4956l-10,0c-1.10457,0 -2,0.89543 -2,2c0,1.10457 0.89543,2 2,2l6.71713,0c1.35104,-1.37817 2.89997,-2.56163 4.60078,-3.5044l0,0zm6.68209,-6.4956c0,-1.10457 -0.89543,-2 -2,-2l-16,0c-1.10457,0 -2,0.89543 -2,2c0,1.10457 0.89543,2 2,2l16,0c1.10457,0 2,-0.89543 2,-2l0,0zm-11,-8c0,-1.10457 -0.89543,-2 -2,-2l-5,0c-1.10457,0 -2,0.89543 -2,2c0,1.10457 0.89543,2 2,2l5,0c1.10457,0 2,-0.89543 2,-2zm-2,32c0,-8.83656 7.16344,-16 16,-16c8.83656,0 16,7.16344 16,16c0,8.83656 -7.16344,16 -16,16c-8.83656,0 -16,-7.16344 -16,-16zm28,0c0,-6.62742 -5.37258,-12 -12,-12c-6.62742,0 -12,5.37258 -12,12c0,6.62742 5.37258,12 12,12c6.62742,0 12,-5.37258 12,-12zm-13.08579,7.41421l9,-9c0.78105,-0.78105 0.78105,-2.04737 0,-2.82842c-0.78104,-0.78105 -2.04737,-0.78105 -2.82842,0l-7.57279,7.59878l-3.59879,-3.59878c-0.78105,-0.78105 -2.04737,-0.78105 -2.82842,0c-0.78105,0.78105 -0.78105,2.04737 0,2.82842l5,5c0.78105,0.78105 2.04737,0.78105 2.82842,0l0,0z"/>
        </g>
      </g>
      <text transform="matrix(2.5195264071413845,0,0,2.5195264071413845,0,0) " id="svg_7"
            font-family="'Helvetica Neue', Helvetica, Arial-Unicode, Arial, Sans-serif" font-weight="bold"
            font-size="5px" fill="#000000" y="94.795631" x="-5.480843">Created by Milan Gladiš
      </text>
      <text transform="matrix(2.5195264071413845,0,0,2.5195264071413845,0,0) " id="svg_8"
            font-family="'Helvetica Neue', Helvetica, Arial-Unicode, Arial, Sans-serif" font-weight="bold"
            font-size="5px" fill="#000000" y="99.795631" x="-5.480843">from the Noun Project
      </text>
    </g>
  </g>
</svg>
