<svg xmlns="http://www.w3.org/2000/svg" xmlns:xlink="http://www.w3.org/1999/xlink" version="1.1" x="0px" y="0px" viewBox="0 0 100 125" enable-background="new 0 0 100 100" xml:space="preserve"><path fill-rule="evenodd" clip-rule="evenodd" fill="#000000" d="M88,31"/><g><g><path fill-rule="evenodd" clip-rule="evenodd" fill="#000000" d="M72.75,9.813H40.621l-3.871,3.648v6.227c0,1.104-0.896,2-2,2    h-9.981l-0.207,0.218L20.75,25.93v57.025c0,2.209,1.791,4,4,4h14.938v-4.893H27.125c-1.104,0-2-0.896-2-2V25.886l11.688-0.136    c0,0,2.188-0.188,3-0.875s0.75-2.375,0.75-2.375v-8.938H70.25c1.104,0,2,0.896,2,2v35.344l4.5,4.5V13.813    C76.75,11.604,74.959,9.813,72.75,9.813z M72.25,80.063c0,1.104-0.896,2-2,2h-0.063l-4.893,4.893h7.455c2.209,0,4-1.791,4-4V75.5    l-4.5,4.5V80.063z"/></g></g><g><g><path fill-rule="evenodd" clip-rule="evenodd" fill="#000000" d="M43.063,90.375h3.79l-3.79-4.217V90.375z M43.063,75.188v9.628    c1.881-0.015,5.454,0.609,5.384,5.56h9.866L43.063,75.188z"/></g></g><g><g><path fill-rule="evenodd" clip-rule="evenodd" fill="#000000" d="M81.375,63.5c-1.438-1.563-10.938-11.063-10.938-11.063    s-1.25-1.75-3-0.125S44.875,73.438,44.875,73.438L59.25,87.813L81,66.688C81,66.688,82.813,65.063,81.375,63.5z M75.406,68.094    L59.844,83.031l-6.555-6.652l17.648-16.004l-1.281-1.188L51.813,74.875l-1.563-1.563l18.531-17.875l9.656,9.281L75.406,68.094z"/></g></g><text x="0" y="115" fill="#000000" font-size="5px" font-weight="bold" font-family="'Helvetica Neue', Helvetica, Arial-Unicode, Arial, Sans-serif">Created by Vytautas Alech</text><text x="0" y="120" fill="#000000" font-size="5px" font-weight="bold" font-family="'Helvetica Neue', Helvetica, Arial-Unicode, Arial, Sans-serif">from the Noun Project</text></svg>