<svg id="Capa_1" enable-background="new 0 0 512 512" height="512" viewBox="0 0 512 512" width="512" xmlns="http://www.w3.org/2000/svg"><g><path d="m407.519 204.41c4.142 0 7.5-3.357 7.5-7.5v-26.79c.088-8.621-3.619-17.866-10.034-24.241l-62.618-62.619 47.593-47.593c6.09-6.084 7.828-14.806 4.535-22.762-3.295-7.96-10.692-12.905-19.306-12.905h-108.09c-4.859 0-9.579 1.015-14.036 3.012-3.304 1.427-7.32 4.118-10.209 7.026l-62.616 62.615-11.117-11.117c-2.929-2.928-7.678-2.928-10.606 0-2.929 2.93-2.929 7.678 0 10.607l68.539 68.539c-2.085 3.279-3.628 6.932-4.504 10.837h-110.23c-.226-1.188-.341-2.393-.341-3.59v-108.099c0-3.65 2.781-5.087 3.633-5.44.853-.354 3.839-1.309 6.423 1.274l11.74 11.739c2.93 2.928 7.678 2.929 10.607-.001 2.929-2.929 2.928-7.678 0-10.606l-11.743-11.742c-6.092-6.085-14.817-7.816-22.771-4.521-7.95 3.296-12.889 10.689-12.889 19.297v108.1c0 4.842 1.061 9.745 3.066 14.181v.001c.004.008.006.016.009.024 1.71 3.752 4.051 7.128 6.958 10.035l62.618 62.617-47.592 47.597c-6.09 6.083-7.828 14.805-4.536 22.76 3.294 7.961 10.692 12.906 19.306 12.906h92.5v186.449c0 4.143 3.358 7.5 7.5 7.5h38.38c4.142 0 7.5-3.357 7.5-7.5v-107.05c0-4.143-3.358-7.5-7.5-7.5s-7.5 3.357-7.5 7.5v99.55h-23.38v-178.95c8.189.181 16.928-2.916 23.38-8.676v53.076c0 4.143 3.358 7.5 7.5 7.5s7.5-3.357 7.5-7.5v-67.985l49.071-49.071 47.599 47.603c4.05 4.045 9.261 6.166 14.637 6.166 2.712 0 5.467-.541 8.134-1.646 7.95-3.296 12.889-10.689 12.889-19.297v-46.31c0-4.143-3.358-7.5-7.5-7.5s-7.5 3.357-7.5 7.5v46.31c0 3.65-2.781 5.087-3.633 5.44-.854.354-3.84 1.308-6.423-1.272l-105.015-105.026c2.086-3.281 3.628-6.936 4.503-10.842h110.231c.225 1.184.338 2.386.338 3.601v26.79c0 4.142 3.358 7.499 7.5 7.499zm-18.107-52.89h-99.964c-.876-3.905-2.418-7.558-4.504-10.837l46.815-46.815zm-133.403 26.79c-.003 0-.006 0-.01 0s-.006 0-.01 0c-10.63-.005-19.276-8.654-19.276-19.286 0-10.628 8.642-19.274 19.267-19.285.007 0 .013.001.019.001s.013-.001.019-.001c10.625.011 19.267 8.657 19.267 19.285 0 10.632-8.646 19.281-19.276 19.286zm11.09-163.31h108.09c3.655 0 5.092 2.787 5.446 3.642.353.853 1.304 3.835-1.279 6.415l-105.02 105.02c-3.279-2.084-6.932-3.626-10.837-4.501v-110.237c1.182-.226 2.384-.339 3.6-.339zm-18.6 10.607v99.967c-3.905.875-7.558 2.417-10.837 4.501l-46.816-46.815zm-125.923 140.913h99.972c.875 3.907 2.417 7.562 4.503 10.842l-46.814 46.818zm122.323 136.53h-108.09c-3.655 0-5.093-2.787-5.446-3.642-.353-.853-1.303-3.835 1.28-6.415l105.014-105.024c3.28 2.086 6.935 3.629 10.842 4.505v110.238c-1.181.225-2.384.338-3.6.338zm18.6-10.609v-99.967c3.907-.875 7.562-2.418 10.842-4.505l46.813 46.817z"/></g></svg>